<svg width="7" height="8" viewBox="0 0 7 8" fill="none" xmlns="http://www.w3.org/2000/svg">
<path d="M6.64632 5.71366L6.37158 5.00038C6.31536 4.84228 6.2895 4.55736 6.31758 4.39811L6.49086 3.41538C6.65181 2.50257 6.25482 1.61954 5.54691 1.11424C5.40794 0.721271 5.07408 0.434115 4.64681 0.358775C4.22342 0.284121 3.80235 0.446173 3.53667 0.771797C2.7128 1.01502 2.05076 1.7033 1.89186 2.60445L1.71858 3.58718C1.6905 3.74643 1.56875 4.00532 1.46252 4.13077L0.955832 4.71027C0.754571 4.94313 0.668929 5.2244 0.719463 5.50565C0.766798 5.78234 0.952587 6.02336 1.2229 6.17115C1.93125 6.56039 2.70173 6.8244 3.49413 6.96413C4.28652 7.10385 5.10083 7.11927 5.8989 6.99966C6.18656 6.95827 6.43261 6.78938 6.58086 6.53918C6.72911 6.28897 6.75397 5.98897 6.64632 5.71366Z" fill="#3D5278"/>
</svg>
