<svg width="12" height="12" viewBox="0 0 12 12" fill="none" xmlns="http://www.w3.org/2000/svg">
<path fill-rule="evenodd" clip-rule="evenodd" d="M5.50008 1.595C5.53462 1.48548 5.60317 1.38982 5.69579 1.32192C5.7884 1.25402 5.90024 1.21741 6.01508 1.21741C6.12992 1.21741 6.24177 1.25402 6.33438 1.32192C6.42699 1.38982 6.49555 1.48548 6.53008 1.595L7.46008 4.455H10.4601C10.579 4.45051 10.6962 4.48507 10.7936 4.55342C10.8911 4.62177 10.9635 4.72014 10.9997 4.83351C11.036 4.94688 11.0342 5.069 10.9945 5.18123C10.9549 5.29346 10.8795 5.38961 10.7801 5.455L8.34508 7.22L9.27508 10.085C9.31186 10.1941 9.31279 10.3122 9.27773 10.4219C9.24267 10.5316 9.17345 10.6272 9.0802 10.6947C8.98694 10.7623 8.87452 10.7983 8.75936 10.7974C8.6442 10.7966 8.53233 10.7589 8.44008 10.69L6.00008 8.905L3.56508 10.675C3.47284 10.7439 3.36097 10.7816 3.2458 10.7824C3.13064 10.7833 3.01823 10.7473 2.92497 10.6797C2.83171 10.6122 2.7625 10.5166 2.72744 10.4069C2.69238 10.2972 2.6933 10.1791 2.73008 10.07L3.66008 7.205L1.22508 5.44C1.12562 5.37461 1.05031 5.27846 1.01064 5.16623C0.970978 5.054 0.969144 4.93188 1.00542 4.81851C1.0417 4.70514 1.11409 4.60677 1.21154 4.53842C1.30899 4.47007 1.42614 4.43551 1.54508 4.44H4.54508L5.50008 1.595Z" stroke="#90A3BF" stroke-width="1.5" stroke-linecap="round" stroke-linejoin="round"/>
</svg>
