<svg width="21" height="20" viewBox="0 0 21 20" fill="none" xmlns="http://www.w3.org/2000/svg">
<path d="M18.1 7.22043C16.29 7.22043 15.55 5.94042 16.45 4.37042C16.97 3.46042 16.66 2.30042 15.75 1.78042L14.02 0.790425C13.23 0.320425 12.21 0.600425 11.74 1.39042L11.63 1.58042C10.73 3.15042 9.25 3.15042 8.34 1.58042L8.23 1.39042C7.78 0.600425 6.76 0.320425 5.97 0.790425L4.24 1.78042C3.33 2.30042 3.02 3.47042 3.54 4.38042C4.45 5.94042 3.71 7.22043 1.9 7.22043C0.86 7.22043 0 8.07042 0 9.12042V10.8804C0 11.9204 0.85 12.7804 1.9 12.7804C3.71 12.7804 4.45 14.0604 3.54 15.6304C3.02 16.5404 3.33 17.7004 4.24 18.2204L5.97 19.2104C6.76 19.6804 7.78 19.4004 8.25 18.6104L8.36 18.4204C9.26 16.8504 10.74 16.8504 11.65 18.4204L11.76 18.6104C12.23 19.4004 13.25 19.6804 14.04 19.2104L15.77 18.2204C16.68 17.7004 16.99 16.5304 16.47 15.6304C15.56 14.0604 16.3 12.7804 18.11 12.7804C19.15 12.7804 20.01 11.9304 20.01 10.8804V9.12042C20 8.08042 19.15 7.22043 18.1 7.22043ZM10 13.2504C8.21 13.2504 6.75 11.7904 6.75 10.0004C6.75 8.21042 8.21 6.75042 10 6.75042C11.79 6.75042 13.25 8.21042 13.25 10.0004C13.25 11.7904 11.79 13.2504 10 13.2504Z" fill="#596780"/>
</svg>
